<?xml version="1.0" encoding="UTF-8" standalone="no"?>
<!DOCTYPE svg PUBLIC "-//W3C//DTD SVG 1.1//EN" "http://www.w3.org/Graphics/SVG/1.1/DTD/svg11.dtd">
<svg width="100%" height="100%" viewBox="0 0 135 40" version="1.1" xmlns="http://www.w3.org/2000/svg" xmlns:xlink="http://www.w3.org/1999/xlink" xml:space="preserve" xmlns:serif="http://www.serif.com/" style="fill-rule:evenodd;clip-rule:evenodd;stroke-miterlimit:10;">
    <g transform="matrix(1,0,0,1,-10,-10)">
        <path d="M145,15C145,12.24 142.76,10 140,10L15,10C12.24,10 10,12.24 10,15L10,45C10,47.76 12.24,50 15,50L140,50C142.76,50 145,47.76 145,45L145,15Z"/>
    </g>
    <g transform="matrix(1,0,0,1,-10,-10)">
        <path d="M140,10.8C142.304,10.8 144.2,12.696 144.2,15L144.2,45C144.2,47.304 142.304,49.2 140,49.2L15,49.2C12.696,49.2 10.8,47.304 10.8,45L10.8,15C10.8,12.696 12.696,10.8 15,10.8L140,10.8M140,10L15,10C12.257,10 10,12.257 10,15L10,45C10,47.743 12.257,50 15,50L140,50C142.743,50 145,47.743 145,45L145,15C145,12.257 142.743,10 140,10Z" style="fill:rgb(166,166,166);fill-rule:nonzero;"/>
    </g>
    <g transform="matrix(1,0,0,1,-10,-10)">
        <path d="M57.42,20.24C57.454,20.981 57.183,21.704 56.67,22.24C56.097,22.836 55.296,23.159 54.47,23.13C52.751,23.117 51.345,21.699 51.345,19.98C51.345,19.149 51.674,18.35 52.26,17.76C52.84,17.168 53.641,16.842 54.47,16.86C54.893,16.859 55.311,16.944 55.7,17.11C56.062,17.256 56.384,17.486 56.64,17.78L56.11,18.31C55.706,17.829 55.097,17.566 54.47,17.6L54.459,17.6C53.186,17.6 52.139,18.647 52.139,19.92C52.139,19.947 52.139,19.973 52.14,20L52.14,20.033C52.14,21.328 53.205,22.393 54.5,22.393C55.112,22.393 55.7,22.155 56.14,21.73C56.448,21.397 56.625,20.963 56.64,20.51L54.47,20.51L54.47,19.79L57.38,19.79C57.407,19.939 57.42,20.089 57.42,20.24ZM62,17.74L59.3,17.74L59.3,19.64L61.76,19.64L61.76,20.36L59.3,20.36L59.3,22.26L62,22.26L62,23L58.5,23L58.5,17L62,17L62,17.74ZM65.28,23L64.51,23L64.51,17.74L62.83,17.74L62.83,17L67,17L67,17.74L65.28,17.74L65.28,23ZM69.94,23L69.94,17L70.71,17L70.71,23L69.94,23ZM74.13,23L73.36,23L73.36,17.74L71.68,17.74L71.68,17L75.8,17L75.8,17.74L74.13,17.74L74.13,23ZM83.61,22.22C82.401,23.422 80.419,23.422 79.21,22.22C78.037,20.978 78.037,19.012 79.21,17.77C79.792,17.184 80.584,16.854 81.41,16.854C82.236,16.854 83.028,17.184 83.61,17.77C84.788,19.009 84.788,20.981 83.61,22.22ZM79.78,21.72C80.675,22.612 82.145,22.612 83.04,21.72C83.921,20.749 83.921,19.251 83.04,18.28C82.145,17.388 80.675,17.388 79.78,18.28C78.899,19.251 78.899,20.749 79.78,21.72ZM85.58,23L85.58,17L86.52,17L89.44,21.67L89.44,17L90.21,17L90.21,23L89.41,23L86.36,18.11L86.36,23L85.58,23Z" style="fill:white;fill-rule:nonzero;stroke:white;stroke-width:0.2px;"/>
    </g>
    <g transform="matrix(1,0,0,1,-10,-10)">
        <path d="M78.14,31.75C75.816,31.761 73.91,33.676 73.91,36C73.91,38.331 75.829,40.25 78.16,40.25C80.491,40.25 82.41,38.331 82.41,36L82.41,35.939C82.41,33.641 80.519,31.749 78.22,31.749C78.194,31.749 78.167,31.749 78.14,31.75ZM78.14,38.58C78.08,38.584 78.02,38.586 77.96,38.586C76.545,38.586 75.38,37.422 75.38,36.006C75.38,34.591 76.545,33.426 77.96,33.426C79.373,33.426 80.537,34.587 80.54,36C80.542,36.04 80.543,36.08 80.543,36.121C80.543,37.449 79.468,38.549 78.14,38.58ZM68.83,31.75C66.502,31.755 64.59,33.672 64.59,36C64.59,38.331 66.509,40.25 68.84,40.25C71.171,40.25 73.09,38.331 73.09,36L73.09,35.939C73.09,33.641 71.199,31.749 68.9,31.749C68.874,31.749 68.847,31.749 68.82,31.75L68.83,31.75ZM68.83,38.58C68.767,38.585 68.703,38.587 68.64,38.587C67.225,38.587 66.06,37.422 66.06,36.007C66.06,34.592 67.225,33.427 68.64,33.427C70.053,33.427 71.216,34.587 71.22,36C71.222,36.04 71.223,36.08 71.223,36.121C71.223,37.449 70.148,38.549 68.82,38.58L68.83,38.58ZM57.74,33.06L57.74,34.86L62.06,34.86C61.992,35.708 61.64,36.508 61.06,37.13C60.186,38.02 58.976,38.5 57.73,38.45C55.097,38.45 52.93,36.283 52.93,33.65C52.93,31.017 55.097,28.85 57.73,28.85C58.947,28.83 60.124,29.294 61,30.14L62.27,28.87C61.075,27.66 59.44,26.985 57.74,27C57.654,26.997 57.569,26.995 57.483,26.995C53.857,26.995 50.873,29.979 50.873,33.605C50.873,37.231 53.857,40.215 57.483,40.215C57.569,40.215 57.654,40.213 57.74,40.21C59.471,40.288 61.153,39.613 62.35,38.36C63.397,37.209 63.957,35.695 63.91,34.14C63.913,33.761 63.88,33.383 63.81,33.01L57.74,33.06ZM103.05,34.46C102.517,32.893 101.064,31.811 99.41,31.75L99.402,31.75C97.208,31.75 95.402,33.556 95.402,35.75C95.402,35.833 95.405,35.917 95.41,36C95.409,36.03 95.409,36.06 95.409,36.09C95.409,38.373 97.287,40.25 99.569,40.25L99.63,40.25C101.049,40.258 102.381,39.55 103.17,38.37L101.72,37.37C101.28,38.103 100.485,38.552 99.63,38.55C98.745,38.584 97.926,38.07 97.57,37.26L103.26,34.91L103.05,34.46ZM97.25,35.88C97.247,35.829 97.245,35.778 97.245,35.728C97.245,34.489 98.233,33.456 99.47,33.4C100.128,33.357 100.752,33.712 101.05,34.3L97.25,35.88ZM92.63,40L94.5,40L94.5,27.5L92.63,27.5L92.63,40ZM89.57,32.7L89.5,32.7C88.93,32.063 88.115,31.699 87.26,31.7C85.003,31.809 83.206,33.696 83.206,35.955C83.206,38.214 85.003,40.101 87.26,40.21C88.117,40.224 88.938,39.858 89.5,39.21L89.56,39.21L89.56,39.82C89.56,41.45 88.69,42.32 87.29,42.32C86.338,42.298 85.49,41.699 85.15,40.81L83.52,41.49C84.146,43.014 85.643,44.01 87.29,44C89.48,44 91.29,42.71 91.29,39.57L91.29,32L89.57,32L89.57,32.7ZM87.43,38.58C86.1,38.463 85.067,37.335 85.067,36C85.067,34.665 86.1,33.537 87.43,33.42C88.699,33.485 89.707,34.547 89.707,35.817C89.707,35.878 89.705,35.939 89.7,36C89.706,36.067 89.709,36.134 89.709,36.202C89.709,37.473 88.69,38.531 87.42,38.58L87.43,38.58ZM111.82,27.5L107.34,27.5L107.34,40L109.21,40L109.21,35.26L111.82,35.26C111.913,35.267 112.006,35.27 112.099,35.27C114.233,35.27 115.989,33.514 115.989,31.38C115.989,29.246 114.233,27.49 112.099,27.49C112.006,27.49 111.913,27.493 111.82,27.5ZM111.81,33.5L109.2,33.5L109.2,29.24L111.85,29.24C113.027,29.24 113.995,30.208 113.995,31.385C113.995,32.562 113.027,33.53 111.85,33.53L111.81,33.5ZM123.34,31.7C121.951,31.617 120.639,32.369 120.01,33.61L121.67,34.3C122.004,33.685 122.672,33.323 123.37,33.38C123.439,33.372 123.509,33.368 123.579,33.368C124.499,33.368 125.279,34.074 125.37,34.99L125.37,35.12C124.769,34.802 124.1,34.637 123.42,34.64C121.63,34.64 119.82,35.64 119.82,37.45C119.89,38.984 121.171,40.208 122.707,40.208C122.778,40.208 122.849,40.205 122.92,40.2C123.878,40.269 124.8,39.808 125.32,39L125.38,39L125.38,40L127.18,40L127.18,35.19C127.18,33 125.52,31.73 123.39,31.73L123.34,31.7ZM123.11,38.55C122.5,38.55 121.65,38.24 121.65,37.49C121.65,36.49 122.71,36.16 123.65,36.16C124.244,36.145 124.831,36.29 125.35,36.58C125.221,37.694 124.281,38.553 123.16,38.58L123.11,38.55ZM133.74,32L131.6,37.42L131.54,37.42L129.32,32L127.32,32L130.65,39.58L128.75,43.79L130.7,43.79L135.82,32L133.74,32ZM116.93,40L118.8,40L118.8,27.5L116.93,27.5L116.93,40Z" style="fill:white;fill-rule:nonzero;"/>
    </g>
    <g transform="matrix(0.789361,0,0,0.789361,9.97651,7.28506)">
        <path d="M13.54,15.28L0.12,29.34C0.572,30.9 2.011,31.981 3.635,31.981C4.272,31.981 4.897,31.816 5.45,31.5L20.55,22.9L13.54,15.28Z" style="fill:rgb(234,67,53);fill-rule:nonzero;"/>
        <path d="M27.11,12.89L20.58,9.15L13.23,15.6L20.61,22.88L27.09,19.18C28.26,18.572 28.997,17.358 28.997,16.039C28.997,15.464 28.858,14.898 28.59,14.39C28.251,13.752 27.728,13.229 27.09,12.89L27.11,12.89Z" style="fill:rgb(251,188,4);fill-rule:nonzero;"/>
        <path d="M0.12,2.66C0.04,2.96 -0,3.269 0,3.58L0,28.42C-0,28.731 0.04,29.04 0.12,29.34L14,15.64L0.12,2.66Z" style="fill:rgb(66,133,244);fill-rule:nonzero;"/>
        <path d="M13.64,16L20.58,9.15L5.5,0.51C4.933,0.178 4.287,0.002 3.63,0C2.003,-0.003 0.562,1.085 0.12,2.65L13.64,16Z" style="fill:rgb(52,168,83);fill-rule:nonzero;"/>
    </g>
</svg>
